<?xml version="1.0" encoding="utf-8"?><svg viewBox="0 0 89 23" xmlns="http://www.w3.org/2000/svg" xmlns:xlink="http://www.w3.org/1999/xlink"><style>:root>svg{display:none}:root>svg:target{display:block}</style><svg viewBox="0 0 8 9" id="arrow" xmlns="http://www.w3.org/2000/svg"><path d="M3.646 8.354a.5.5 0 00.708 0l3.181-3.182a.5.5 0 10-.707-.708L4 7.293 1.172 4.464a.5.5 0 10-.708.708l3.182 3.182zM3.5 0v8h1V0h-1z"/></svg><svg viewBox="0 0 9 16" id="fb" xmlns="http://www.w3.org/2000/svg"><path d="M5.393 16V8.702h2.45l.367-2.845H5.393V4.041c0-.823.229-1.384 1.41-1.384h1.506V.111A20.134 20.134 0 006.114 0C3.943 0 2.456 1.326 2.456 3.76v2.097H0v2.845h2.456V16h2.937z"/></svg><svg viewBox="0 0 14 14" id="inst" xmlns="http://www.w3.org/2000/svg"><path fill-rule="evenodd" clip-rule="evenodd" d="M10.5 0h-7A3.51 3.51 0 000 3.5v7A3.51 3.51 0 003.5 14h7a3.51 3.51 0 003.5-3.5v-7A3.51 3.51 0 0010.5 0zM7 9.917a2.917 2.917 0 110-5.834 2.917 2.917 0 010 5.834zm2.917-6.708a.875.875 0 101.75 0 .875.875 0 00-1.75 0z"/></svg><svg viewBox="0 0 21 20" id="star" xmlns="http://www.w3.org/2000/svg"><path d="M10.566 0l2.484 7.146 7.564.155-6.029 4.57 2.191 7.242-6.21-4.321-6.21 4.321 2.19-7.242-6.029-4.57 7.564-.155L10.566 0z"/></svg><svg viewBox="0 0 16 13" id="twit" xmlns="http://www.w3.org/2000/svg"><path d="M15.278 1.555a.32.32 0 00-.384-.064 3.055 3.055 0 01-.48.173A3.12 3.12 0 0014.958.64a.32.32 0 00-.493-.34 6.778 6.778 0 01-1.62.64A3.232 3.232 0 0010.562 0a3.654 3.654 0 00-1.92.595C7.425 1.28 7.214 2.861 7.303 3.84A8.32 8.32 0 011.543.794.34.34 0 001.281.64a.32.32 0 00-.256.16 3.424 3.424 0 00.14 3.648 4.048 4.048 0 01-.3-.224.32.32 0 00-.544.256 3.667 3.667 0 001.6 2.97l-.25-.07a.32.32 0 00-.39.428 4.147 4.147 0 002.681 2.317 5.9 5.9 0 01-3.603.755.32.32 0 00-.198.595A9.728 9.728 0 005.12 12.8a8.544 8.544 0 006.4-2.963 8.723 8.723 0 002.336-6.349A6.28 6.28 0 0015.31 1.92a.32.32 0 00-.032-.365z"/></svg><svg viewBox="0 0 43 16" id="veljko" xmlns="http://www.w3.org/2000/svg"><path d="M4.992 10.273L8.344.625h1.633L5.766 12H4.602l.39-1.727zM1.86.625l3.32 9.648L5.595 12H4.43L.227.625h1.632zm12.594 11.531a4.158 4.158 0 01-1.601-.297 3.632 3.632 0 01-1.227-.851 3.787 3.787 0 01-.781-1.297 4.756 4.756 0 01-.274-1.64v-.329c0-.687.102-1.3.305-1.836.203-.541.48-1 .828-1.375a3.548 3.548 0 011.188-.851 3.4 3.4 0 011.375-.29c.604 0 1.125.105 1.562.313.443.208.805.5 1.086.875.281.37.49.807.625 1.313.135.5.203 1.046.203 1.64v.649H11.43V7h4.867v-.11a3.607 3.607 0 00-.235-1.093 1.966 1.966 0 00-.625-.875c-.286-.23-.677-.344-1.171-.344a1.967 1.967 0 00-1.618.82 3.081 3.081 0 00-.46.993c-.11.39-.165.84-.165 1.351v.328c0 .401.055.779.165 1.133.114.35.278.656.492.922.218.266.482.474.789.625.312.151.666.227 1.062.227.51 0 .943-.105 1.297-.313.354-.208.664-.487.93-.836l.875.695c-.182.277-.414.54-.695.79a3.32 3.32 0 01-1.04.609c-.406.156-.888.234-1.445.234zM21 0v12h-1.453V0H21zm2.36 3.547h1.453v9.46c0 .516-.084.954-.25 1.313a1.7 1.7 0 01-.735.813c-.323.187-.732.281-1.226.281a3.09 3.09 0 01-.454-.039 3.108 3.108 0 01-.445-.094l.008-1.164c.099.021.21.037.336.047.125.016.234.024.328.024.213 0 .393-.04.54-.118a.73.73 0 00.327-.375c.078-.172.117-.4.117-.687V3.547zm-.15-2.242c0-.235.074-.433.22-.594.146-.162.357-.242.633-.242.28 0 .494.08.64.242.146.161.219.36.219.594a.833.833 0 01-.219.578c-.146.156-.36.234-.64.234-.276 0-.487-.078-.633-.234a.833.833 0 01-.22-.578zM28.603 0v12h-1.454V0h1.454zm5.164 3.547l-3.688 3.945-2.062 2.14-.118-1.538 1.477-1.766L32 3.547h1.766zM32.446 12L29.43 7.969l.75-1.29L34.148 12h-1.703zm2.429-4.133v-.18c0-.609.089-1.174.266-1.695a4.03 4.03 0 01.765-1.367c.334-.39.737-.693 1.211-.906a3.759 3.759 0 011.594-.328c.594 0 1.128.109 1.602.328.479.213.885.515 1.218.906.339.385.597.841.774 1.367a5.24 5.24 0 01.265 1.696v.18c0 .609-.088 1.174-.265 1.694a4.054 4.054 0 01-.774 1.368 3.542 3.542 0 01-1.21.906c-.47.213-1 .32-1.594.32a3.857 3.857 0 01-1.602-.32 3.624 3.624 0 01-1.219-.906 4.13 4.13 0 01-.765-1.367 5.234 5.234 0 01-.266-1.696zm1.445-.18v.18c0 .422.05.82.149 1.196.099.37.247.697.445.984.203.286.456.513.758.68a2.21 2.21 0 001.055.242c.395 0 .742-.081 1.039-.242.302-.167.552-.394.75-.68.198-.287.346-.615.445-.985.104-.374.156-.773.156-1.195v-.18c0-.416-.052-.81-.156-1.18a3.037 3.037 0 00-.453-.991 2.153 2.153 0 00-.75-.688 2.104 2.104 0 00-1.047-.25c-.396 0-.745.083-1.047.25a2.248 2.248 0 00-.75.688 3.134 3.134 0 00-.445.992c-.1.37-.149.763-.149 1.18z"/></svg><svg viewBox="0 0 89 23" id="webflow" xmlns="http://www.w3.org/2000/svg"><path d="M28.495 8.724c0-1.6-1.535-3.278-4.203-3.278-2.992 0-6.277 2.203-6.78 6.6-.514 4.44 2.237 6.413 5.01 6.413 2.773 0 4.225-1.085 5.71-2.532-1.277-1.61-2.926-.866-3.242-.702a3.31 3.31 0 01-1.714.417c-1.07 0-2.162-.482-2.162-2.488 6.856-.68 7.38-2.84 7.38-4.43h.001zm-3.398.263c-.044.493-.24 1.337-3.712 1.81.73-2.61 2.13-2.806 2.773-2.806a.91.91 0 01.946.998l-.007-.002zm-11.612.428l-1.594 5.032-1.125-8.737c-2.51 0-3.86 1.798-4.564 3.694l-1.944 5.054-.273-5C3.837 7.134 1.715 5.72 0 5.72l2.074 12.64c2.63-.01 4.05-1.798 4.793-3.694l1.644-4.297c.015.175 1.136 7.992 1.136 7.992 2.642 0 4.062-1.677 4.823-3.508l3.7-9.132c-2.605 0-3.978 1.787-4.687 3.694h.002zm24.706-4c-1.627 0-2.87.888-3.92 2.192v-.01L35.209 0c-2.162 0-3.92 1.886-4.258 4.692l-1.626 13.57c1.245 0 2.566-.362 3.276-1.283.634.822 1.583 1.48 2.992 1.48 3.646 0 6.147-4.253 6.147-8.244-.022-3.64-1.78-4.79-3.538-4.79l-.011-.01zm-.34 6.523c-.38 2.225-1.616 3.738-2.805 3.738s-1.714-.537-1.714-.537c.23-1.95.372-3.146.808-4.177.436-1.031 1.474-2.675 2.555-2.675 1.06 0 1.54 1.414 1.157 3.65l-.001.001zm12.982-6.227h-2.544l.01-.132c.175-1.666.568-2.543 1.864-2.686.885-.088 1.278-.548 1.376-1.052l.317-1.765c-5.1-.033-6.714 2.18-7.125 5.558l-.01.077h-.055c-.83 0-1.746.943-1.9 2.138l-.055.438h1.704l-1.43 11.86-.438 2.127c.055 0 .12.01.174.01 2.39-.088 3.92-1.984 4.258-4.736l1.116-9.263h.8c.786 0 1.704-.79 1.864-2.105l.074-.469zm13.232-.22c-2.937 0-5.71 2.17-6.56 5.58-.85 3.41.438 7.443 4.76 7.443s6.797-4.2 6.797-7.696c.004-3.475-2.342-5.328-4.996-5.328l-.001.001zm1.19 6.336c-.152 1.546-.83 3.892-2.686 3.892-1.856 0-1.605-2.74-1.425-4.045.197-1.392.972-3.376 2.642-3.376 1.502 0 1.643 1.787 1.47 3.53l-.001-.001zm18.32-2.423l-1.594 5.032c-.043-.395-1.124-8.737-1.124-8.737-2.51 0-3.854 1.798-4.558 3.694l-1.944 5.054c-.01-.362-.273-5-.273-5-.158-2.324-2.278-3.738-4-3.738l2.063 12.64c2.63-.01 4.05-1.798 4.793-3.694l1.638-4.297c.01.175 1.136 7.992 1.136 7.992 2.642 0 4.056-1.677 4.823-3.508l3.703-9.132c-2.598 0-3.974 1.787-4.673 3.694h.01zM53.235.074l-2.14 17.33-.438 2.138c.054 0 .12.01.174.01 2.302-.033 3.94-2.06 4.247-4.615l1.233-9.943c.374-3.037-1.427-4.922-3.076-4.922v.002z"/></svg></svg>