<svg width="112" height="36" fill="none" xmlns="http://www.w3.org/2000/svg"><path d="M48.065 20.791c0-4.266-2.511-7.479-6.399-7.479-1.728 0-3.186.729-4.239 2.133V8.614h-3.753V28h3.456v-2.079c1.107 1.512 2.673 2.349 4.536 2.349 3.888 0 6.399-3.267 6.399-7.479zm-3.861 0c0 2.7-1.539 4.131-3.375 4.131-1.863 0-3.375-1.458-3.375-4.185 0-2.727 1.566-4.104 3.375-4.104 1.836 0 3.375 1.404 3.375 4.158zM52.9 28V8.614h-3.78V28h3.78zm10.6 0h3.051v-9.072c0-3.537-2.214-5.616-5.994-5.616-3.483 0-5.886 2.16-6.102 5.481h3.375c.135-1.62 1.107-2.565 2.727-2.565 1.566 0 2.484.945 2.484 2.565v.864a18.904 18.904 0 00-2.403-.162c-4.212 0-6.48 1.512-6.48 4.32 0 2.7 1.998 4.455 4.995 4.455 1.971 0 3.402-.702 4.347-2.052V28zm-5.805-4.293c0-1.296 1.053-1.971 3.186-1.971.648 0 1.27.054 2.16.189v1.026c0 1.674-1.16 2.727-3.078 2.727-1.404 0-2.268-.756-2.268-1.971zm14.493-3.564c0-2.322 1.27-3.51 2.755-3.51 1.7 0 2.537 1.188 2.537 3.321V28h3.727v-9.315c0-3.483-1.998-5.373-4.888-5.373-1.89 0-3.374.891-4.427 2.322v-2.052h-3.457V28h3.753v-7.857zM86.844 28v-6.696L92.352 28h4.78l-6.67-7.506 5.967-6.912h-4.32l-5.265 6.102V8.614h-3.753V28h3.753zm16.14.27c4.185 0 7.317-3.294 7.317-7.479 0-4.212-3.132-7.479-7.317-7.479-4.184 0-7.316 3.267-7.316 7.479 0 4.185 3.131 7.479 7.316 7.479zm0-3.321c-1.863 0-3.456-1.485-3.456-4.158s1.593-4.131 3.456-4.131 3.456 1.458 3.456 4.131-1.593 4.158-3.456 4.158z" fill="#fff"/><path d="M22 6h-5v17h5V6zm-5 22v-5H0v5h17z" fill="#FF7043"/><path d="M22 11V6H5v5h17zM0 28h5V11H0v17z" fill="#FF7043"/></svg>