<svg width="16" height="13" fill="none" xmlns="http://www.w3.org/2000/svg"><path d="M15.278 1.555a.32.32 0 00-.384-.064 3.055 3.055 0 01-.48.173A3.12 3.12 0 0014.958.64a.32.32 0 00-.493-.34 6.778 6.778 0 01-1.62.64A3.232 3.232 0 0010.562 0a3.654 3.654 0 00-1.92.595C7.425 1.28 7.214 2.861 7.303 3.84A8.32 8.32 0 011.543.794.34.34 0 001.281.64a.32.32 0 00-.256.16 3.424 3.424 0 00.14 3.648 4.048 4.048 0 01-.3-.224.32.32 0 00-.544.256 3.667 3.667 0 001.6 2.97l-.25-.07a.32.32 0 00-.39.428 4.147 4.147 0 002.681 2.317 5.9 5.9 0 01-3.603.755.32.32 0 00-.198.595A9.728 9.728 0 005.12 12.8a8.544 8.544 0 006.4-2.963 8.723 8.723 0 002.336-6.349A6.28 6.28 0 0015.31 1.92a.32.32 0 00-.032-.365z" fill="#fff"/></svg>