<svg width="43" height="16" fill="none" xmlns="http://www.w3.org/2000/svg"><path d="M4.992 10.273L8.344.625h1.633L5.766 12H4.602l.39-1.727zM1.86.625l3.32 9.648L5.595 12H4.43L.227.625h1.632zm12.594 11.531a4.158 4.158 0 01-1.601-.297 3.632 3.632 0 01-1.227-.851 3.787 3.787 0 01-.781-1.297 4.756 4.756 0 01-.274-1.64v-.329c0-.687.102-1.3.305-1.836.203-.541.48-1 .828-1.375a3.548 3.548 0 011.188-.851 3.4 3.4 0 011.375-.29c.604 0 1.125.105 1.562.313.443.208.805.5 1.086.875.281.37.49.807.625 1.313.135.5.203 1.046.203 1.64v.649H11.43V7h4.867v-.11a3.607 3.607 0 00-.235-1.093 1.966 1.966 0 00-.625-.875c-.286-.23-.677-.344-1.171-.344a1.967 1.967 0 00-1.618.82 3.081 3.081 0 00-.46.993c-.11.39-.165.84-.165 1.351v.328c0 .401.055.779.165 1.133.114.35.278.656.492.922.218.266.482.474.789.625.312.151.666.227 1.062.227.51 0 .943-.105 1.297-.313.354-.208.664-.487.93-.836l.875.695c-.182.277-.414.54-.695.79a3.32 3.32 0 01-1.04.609c-.406.156-.888.234-1.445.234zM21 0v12h-1.453V0H21zm2.36 3.547h1.453v9.46c0 .516-.084.954-.25 1.313a1.7 1.7 0 01-.735.813c-.323.187-.732.281-1.226.281a3.09 3.09 0 01-.454-.039 3.108 3.108 0 01-.445-.094l.008-1.164c.099.021.21.037.336.047.125.016.234.024.328.024.213 0 .393-.04.54-.118a.73.73 0 00.327-.375c.078-.172.117-.4.117-.687V3.547zm-.15-2.242c0-.235.074-.433.22-.594.146-.162.357-.242.633-.242.28 0 .494.08.64.242.146.161.219.36.219.594a.833.833 0 01-.219.578c-.146.156-.36.234-.64.234-.276 0-.487-.078-.633-.234a.833.833 0 01-.22-.578zM28.603 0v12h-1.454V0h1.454zm5.164 3.547l-3.688 3.945-2.062 2.14-.118-1.538 1.477-1.766L32 3.547h1.766zM32.446 12L29.43 7.969l.75-1.29L34.148 12h-1.703zm2.429-4.133v-.18c0-.609.089-1.174.266-1.695a4.03 4.03 0 01.765-1.367c.334-.39.737-.693 1.211-.906a3.759 3.759 0 011.594-.328c.594 0 1.128.109 1.602.328.479.213.885.515 1.218.906.339.385.597.841.774 1.367a5.24 5.24 0 01.265 1.696v.18c0 .609-.088 1.174-.265 1.694a4.054 4.054 0 01-.774 1.368 3.542 3.542 0 01-1.21.906c-.47.213-1 .32-1.594.32a3.857 3.857 0 01-1.602-.32 3.624 3.624 0 01-1.219-.906 4.13 4.13 0 01-.765-1.367 5.234 5.234 0 01-.266-1.696zm1.445-.18v.18c0 .422.05.82.149 1.196.099.37.247.697.445.984.203.286.456.513.758.68a2.21 2.21 0 001.055.242c.395 0 .742-.081 1.039-.242.302-.167.552-.394.75-.68.198-.287.346-.615.445-.985.104-.374.156-.773.156-1.195v-.18c0-.416-.052-.81-.156-1.18a3.037 3.037 0 00-.453-.991 2.153 2.153 0 00-.75-.688 2.104 2.104 0 00-1.047-.25c-.396 0-.745.083-1.047.25a2.248 2.248 0 00-.75.688 3.134 3.134 0 00-.445.992c-.1.37-.149.763-.149 1.18z" fill="#FF7143"/></svg>